<svg width="609" height="609" viewBox="0 0 609 609" fill="none" xmlns="http://www.w3.org/2000/svg">
<circle cx="304.142" cy="304.142" r="304.142" fill="white" fill-opacity="0.04"/>
<circle cx="304.142" cy="304.142" r="303.642" stroke="white" stroke-opacity="0.1"/>
<g filter="url(#filter0_f_5310_2692)">
<path d="M287.749 213.213C279.446 226.2 275.827 243.02 276.891 264.736C277.956 282.407 277.53 284.323 274.549 282.62C264.117 277.084 251.13 255.581 250.917 243.658C250.917 238.123 250.491 237.91 240.272 237.91H229.626V245.362C229.626 264.523 249.001 294.117 267.949 303.91L275.401 307.743L269.44 309.233C259.22 312.001 239.633 309.02 228.136 303.059L217.278 297.736L211.743 304.975C208.762 308.807 206.207 313.065 206.207 314.343C206.207 317.536 224.517 326.265 237.93 329.459C244.956 331.162 255.814 331.801 266.033 330.949C275.401 330.31 282.853 330.523 282.853 331.375C282.853 332.227 279.233 336.272 274.975 340.53C265.82 349.472 250.491 356.924 241.975 357.136C236.227 357.136 236.014 357.562 236.014 367.995V379.066L246.233 377.788C267.311 375.233 289.665 361.607 299.885 344.575C302.866 339.891 306.059 335.846 307.124 335.846C307.975 335.846 308.401 343.723 307.975 353.304C307.549 366.717 306.059 373.53 302.014 381.195L296.904 391.627L304.143 397.588C310.743 403.124 312.02 403.337 315.214 400.569C317.13 398.653 320.962 392.266 323.73 386.304C327.988 376.724 328.627 371.827 328.627 350.323C328.627 329.033 329.053 325.84 331.82 327.33C342.04 332.865 355.027 354.582 355.24 366.078C355.24 371.827 355.666 372.04 366.098 372.04H377.169L375.679 360.117C375.04 353.73 372.059 343.936 369.292 338.401C364.182 328.181 347.575 311.149 338.208 306.039L333.098 303.272L338.208 301.356C346.724 297.949 370.143 301.356 380.788 307.317L390.369 312.639L396.118 305.614C399.311 301.781 402.079 297.523 402.079 296.033C402.079 292.201 380.363 282.62 365.246 279.852C355.879 278.362 347.15 278.149 337.569 279.639L323.517 281.768L327.137 275.594C331.82 267.717 347.362 257.497 357.156 255.794C369.93 253.665 370.143 253.665 370.143 242.381V231.736L362.266 233.013C338.421 236.207 317.343 249.407 306.911 267.078C302.227 275.381 301.162 276.233 299.246 273.039C295.84 266.652 298.82 240.039 304.356 228.755L309.466 218.323L302.014 212.149C297.969 208.955 294.136 205.974 293.498 205.974C292.859 205.974 290.304 209.168 287.749 213.213Z" fill="white"/>
</g>
<path d="M287.748 213.213C279.445 226.2 275.826 243.02 276.89 264.736C277.955 282.407 277.529 284.323 274.548 282.62C264.116 277.084 251.129 255.581 250.916 243.658C250.916 238.123 250.49 237.91 240.271 237.91H229.626V245.362C229.626 264.523 249 294.117 267.948 303.91L275.4 307.743L269.439 309.233C259.219 312.001 239.632 309.02 228.135 303.059L217.277 297.736L211.742 304.975C208.761 308.807 206.206 313.065 206.206 314.343C206.206 317.536 224.516 326.265 237.929 329.459C244.955 331.162 255.813 331.801 266.032 330.949C275.4 330.31 282.852 330.523 282.852 331.375C282.852 332.227 279.232 336.272 274.974 340.53C265.819 349.472 250.49 356.924 241.974 357.136C236.226 357.136 236.013 357.562 236.013 367.995V379.066L246.232 377.788C267.31 375.233 289.664 361.607 299.884 344.575C302.865 339.891 306.058 335.846 307.123 335.846C307.974 335.846 308.4 343.723 307.974 353.304C307.548 366.717 306.058 373.53 302.013 381.195L296.903 391.627L304.142 397.588C310.742 403.124 312.019 403.337 315.213 400.569C317.129 398.653 320.961 392.266 323.729 386.304C327.987 376.724 328.626 371.827 328.626 350.323C328.626 329.033 329.052 325.84 331.82 327.33C342.039 332.865 355.026 354.582 355.239 366.078C355.239 371.827 355.665 372.04 366.097 372.04H377.168L375.678 360.117C375.039 353.73 372.058 343.936 369.291 338.401C364.181 328.181 347.574 311.149 338.207 306.039L333.097 303.272L338.207 301.356C346.723 297.949 370.142 301.356 380.787 307.317L390.368 312.639L396.117 305.614C399.31 301.781 402.078 297.523 402.078 296.033C402.078 292.201 380.362 282.62 365.245 279.852C355.878 278.362 347.149 278.149 337.568 279.639L323.516 281.768L327.136 275.594C331.82 267.717 347.361 257.497 357.155 255.794C369.929 253.665 370.142 253.665 370.142 242.381V231.736L362.265 233.013C338.42 236.207 317.342 249.407 306.91 267.078C302.226 275.381 301.161 276.233 299.245 273.039C295.839 266.652 298.819 240.039 304.355 228.755L309.465 218.323L302.013 212.149C297.968 208.955 294.135 205.974 293.497 205.974C292.858 205.974 290.303 209.168 287.748 213.213Z" fill="white"/>
<defs>
<filter id="filter0_f_5310_2692" x="180.188" y="179.955" width="247.911" height="248.373" filterUnits="userSpaceOnUse" color-interpolation-filters="sRGB">
<feFlood flood-opacity="0" result="BackgroundImageFix"/>
<feBlend mode="normal" in="SourceGraphic" in2="BackgroundImageFix" result="shape"/>
<feGaussianBlur stdDeviation="13.0096" result="effect1_foregroundBlur_5310_2692"/>
</filter>
</defs>
</svg>
