<svg width="1000" height="1000" viewBox="0 0 1000 1000" fill="none" xmlns="http://www.w3.org/2000/svg">
<circle cx="500" cy="500" r="459.192" fill="white" fill-opacity="0.05"/>
<circle cx="500" cy="500" r="458.692" stroke="white" stroke-opacity="0.1"/>
<path d="M82.8132 496.875C87.1275 496.875 90.625 493.377 90.625 489.063C90.625 484.748 87.1272 481.251 82.8128 481.251C78.4981 481.251 75 484.749 75 489.063V496.875H82.8132ZM60.9375 496.875C65.2522 496.875 68.75 493.377 68.75 489.062V467.188C68.75 462.874 65.2522 459.376 60.9375 459.376C56.6228 459.376 53.125 462.874 53.125 467.188V489.062C53.125 493.377 56.6228 496.875 60.9375 496.875Z" fill="#2EB67D"/>
<path d="M17.1868 503.125C12.8725 503.125 9.375 506.623 9.375 510.937C9.375 515.252 12.8728 518.749 17.1872 518.749C21.5019 518.749 25 515.251 25 510.937V503.125H17.1868ZM39.0625 503.125C34.7478 503.125 31.25 506.623 31.25 510.938V532.812C31.25 537.126 34.7478 540.624 39.0625 540.624C43.3772 540.624 46.875 537.126 46.875 532.812V510.938C46.875 506.623 43.3772 503.125 39.0625 503.125Z" fill="#E01E5A"/>
<path d="M53.1254 532.813C53.1254 537.128 56.6228 540.625 60.9372 540.625C65.2515 540.625 68.749 537.127 68.749 532.813C68.749 528.498 65.2512 525 60.9365 525L53.1254 525L53.1254 532.813ZM53.1254 510.937C53.1254 515.252 56.6231 518.75 60.9379 518.75L82.8115 518.75C87.1262 518.75 90.624 515.252 90.624 510.938C90.624 506.623 87.1262 503.125 82.8115 503.125L60.9379 503.125C56.6231 503.125 53.1254 506.623 53.1254 510.937Z" fill="#ECB22E"/>
<path d="M46.8746 467.187C46.8746 462.872 43.3772 459.375 39.0628 459.375C34.7485 459.375 31.251 462.873 31.251 467.187C31.251 471.502 34.7488 475 39.0635 475L46.8746 475L46.8746 467.187ZM46.8746 489.063C46.8746 484.748 43.3769 481.25 39.0621 481.25L17.1885 481.25C12.8738 481.25 9.37598 484.748 9.37598 489.062C9.37598 493.377 12.8738 496.875 17.1885 496.875L39.0621 496.875C43.3769 496.875 46.8746 493.377 46.8746 489.063Z" fill="#36C5F0"/>
<path d="M917.187 503.125C912.872 503.125 909.375 506.623 909.375 510.937C909.375 515.252 912.873 518.749 917.187 518.749C921.502 518.749 925 515.251 925 510.937L925 503.125L917.187 503.125ZM939.063 503.125C934.748 503.125 931.25 506.623 931.25 510.938L931.25 532.812C931.25 537.126 934.748 540.624 939.062 540.624C943.377 540.624 946.875 537.126 946.875 532.812L946.875 510.938C946.875 506.623 943.377 503.125 939.063 503.125Z" fill="#2EB67D"/>
<path d="M982.813 496.875C987.128 496.875 990.625 493.377 990.625 489.063C990.625 484.748 987.127 481.251 982.813 481.251C978.498 481.251 975 484.749 975 489.063L975 496.875L982.813 496.875ZM960.937 496.875C965.252 496.875 968.75 493.377 968.75 489.062L968.75 467.188C968.75 462.874 965.252 459.376 960.938 459.376C956.623 459.376 953.125 462.874 953.125 467.188L953.125 489.062C953.125 493.377 956.623 496.875 960.937 496.875Z" fill="#E01E5A"/>
<path d="M946.875 467.187C946.875 462.872 943.377 459.375 939.063 459.375C934.748 459.375 931.251 462.873 931.251 467.187C931.251 471.502 934.749 475 939.063 475L946.875 475L946.875 467.187ZM946.875 489.063C946.875 484.748 943.377 481.25 939.062 481.25L917.188 481.25C912.874 481.25 909.376 484.748 909.376 489.062C909.376 493.377 912.874 496.875 917.188 496.875L939.062 496.875C943.377 496.875 946.875 493.377 946.875 489.063Z" fill="#ECB22E"/>
<path d="M953.125 532.813C953.125 537.128 956.623 540.625 960.937 540.625C965.252 540.625 968.749 537.127 968.749 532.813C968.749 528.498 965.251 525 960.937 525L953.125 525L953.125 532.813ZM953.125 510.937C953.125 515.252 956.623 518.75 960.938 518.75L982.812 518.75C987.126 518.75 990.624 515.252 990.624 510.938C990.624 506.623 987.126 503.125 982.812 503.125L960.938 503.125C956.623 503.125 953.125 506.623 953.125 510.937Z" fill="#36C5F0"/>
<g clip-path="url(#clip0_5295_6395)">
<path d="M507.375 59.375C508.48 59.375 509.375 60.2704 509.375 61.375L509.375 98C509.375 99.1046 508.48 100 507.375 100L485.937 100C474.719 100 465.625 90.9058 465.625 79.6875C465.625 68.4692 474.719 59.375 485.937 59.375L507.375 59.375Z" fill="url(#paint0_linear_5295_6395)"/>
<path d="M513.625 28.125C514.73 28.125 515.625 29.0204 515.625 30.125L515.625 76.125C515.625 77.2296 514.73 78.125 513.625 78.125L481.25 78.125C467.443 78.125 456.25 66.9321 456.25 53.125C456.25 39.3179 467.443 28.125 481.25 28.125L513.625 28.125Z" fill="url(#paint1_linear_5295_6395)"/>
<circle cx="525" cy="84.375" r="9.375" transform="rotate(90 525 84.375)" fill="#34439E"/>
<circle cx="525" cy="84.375" r="9.375" transform="rotate(90 525 84.375)" fill="url(#paint2_linear_5295_6395)"/>
<circle cx="531.25" cy="56.25" r="12.5" transform="rotate(90 531.25 56.25)" fill="url(#paint3_linear_5295_6395)"/>
<mask id="mask0_5295_6395" style="mask-type:alpha" maskUnits="userSpaceOnUse" x="456" y="28" width="94" height="51">
<path d="M518.75 53.125C518.75 61.7546 525.745 68.75 534.375 68.75C543.005 68.75 550 61.7546 550 53.125C550 44.4954 543.005 37.5 534.375 37.5C525.745 37.5 518.75 44.4954 518.75 53.125Z" fill="url(#paint4_linear_5295_6395)"/>
<path d="M515.625 31.9557C515.625 29.8401 513.91 28.125 511.794 28.125L481.25 28.125C467.443 28.125 456.25 39.3177 456.25 53.125C456.25 66.9323 467.443 78.125 481.25 78.125L511.794 78.125C513.91 78.125 515.625 76.4099 515.625 74.2943L515.625 31.9557Z" fill="url(#paint5_linear_5295_6395)"/>
</mask>
<g mask="url(#mask0_5295_6395)">
<path d="M518.875 21.875C520.532 21.875 521.875 23.2181 521.875 24.875L521.875 59.5C521.875 61.1569 520.532 62.5 518.875 62.5L468.625 62.5C466.968 62.5 465.625 61.1569 465.625 59.5L465.625 21.875L518.875 21.875Z" fill="black" fill-opacity="0.3"/>
</g>
<rect x="528.125" width="56.25" height="56.25" rx="2" transform="rotate(90 528.125 0)" fill="url(#paint6_linear_5295_6395)"/>
<path d="M515.625 40.625L515.625 15.625L509.891 15.625L509.891 24.9842L484.375 24.9842L484.375 31.2658L509.891 31.2658L509.891 40.625L515.625 40.625Z" fill="white"/>
</g>
<g clip-path="url(#clip1_5295_6395)">
<path d="M492.625 940.625C491.52 940.625 490.625 939.73 490.625 938.625L490.625 902C490.625 900.895 491.52 900 492.625 900L514.062 900C525.281 900 534.375 909.094 534.375 920.313C534.375 931.531 525.281 940.625 514.063 940.625L492.625 940.625Z" fill="url(#paint7_linear_5295_6395)"/>
<path d="M486.375 971.875C485.27 971.875 484.375 970.98 484.375 969.875L484.375 923.875C484.375 922.77 485.27 921.875 486.375 921.875L518.75 921.875C532.557 921.875 543.75 933.068 543.75 946.875C543.75 960.682 532.557 971.875 518.75 971.875L486.375 971.875Z" fill="url(#paint8_linear_5295_6395)"/>
<circle cx="475" cy="915.625" r="9.375" transform="rotate(-90 475 915.625)" fill="#34439E"/>
<circle cx="475" cy="915.625" r="9.375" transform="rotate(-90 475 915.625)" fill="url(#paint9_linear_5295_6395)"/>
<circle cx="468.75" cy="943.75" r="12.5" transform="rotate(-90 468.75 943.75)" fill="url(#paint10_linear_5295_6395)"/>
<mask id="mask1_5295_6395" style="mask-type:alpha" maskUnits="userSpaceOnUse" x="450" y="921" width="94" height="51">
<path d="M481.25 946.875C481.25 938.245 474.255 931.25 465.625 931.25C456.995 931.25 450 938.245 450 946.875C450 955.505 456.995 962.5 465.625 962.5C474.255 962.5 481.25 955.505 481.25 946.875Z" fill="url(#paint11_linear_5295_6395)"/>
<path d="M484.375 968.044C484.375 970.16 486.09 971.875 488.206 971.875L518.75 971.875C532.557 971.875 543.75 960.682 543.75 946.875C543.75 933.068 532.557 921.875 518.75 921.875L488.206 921.875C486.09 921.875 484.375 923.59 484.375 925.706L484.375 968.044Z" fill="url(#paint12_linear_5295_6395)"/>
</mask>
<g mask="url(#mask1_5295_6395)">
<path d="M481.125 978.125C479.468 978.125 478.125 976.782 478.125 975.125L478.125 940.5C478.125 938.843 479.468 937.5 481.125 937.5L531.375 937.5C533.032 937.5 534.375 938.843 534.375 940.5L534.375 978.125L481.125 978.125Z" fill="black" fill-opacity="0.3"/>
</g>
<rect x="471.875" y="1000" width="56.25" height="56.25" rx="2" transform="rotate(-90 471.875 1000)" fill="url(#paint13_linear_5295_6395)"/>
<path d="M484.375 959.375L484.375 984.375L490.109 984.375L490.109 975.016L515.625 975.016L515.625 968.734L490.109 968.734L490.109 959.375L484.375 959.375Z" fill="white"/>
</g>
<defs>
<linearGradient id="paint0_linear_5295_6395" x1="507.072" y1="59.375" x2="480.202" y2="100.497" gradientUnits="userSpaceOnUse">
<stop stop-color="#364088"/>
<stop offset="1" stop-color="#6E7EE1"/>
</linearGradient>
<linearGradient id="paint1_linear_5295_6395" x1="489.363" y1="28.125" x2="489.363" y2="78.125" gradientUnits="userSpaceOnUse">
<stop stop-color="#515FC4"/>
<stop offset="1" stop-color="#7084EA"/>
</linearGradient>
<linearGradient id="paint2_linear_5295_6395" x1="515.625" y1="75.9868" x2="533.739" y2="88.7334" gradientUnits="userSpaceOnUse">
<stop stop-color="#364088"/>
<stop offset="1" stop-color="#6E7EE1"/>
</linearGradient>
<linearGradient id="paint3_linear_5295_6395" x1="522.321" y1="47.3214" x2="538.393" y2="66.0714" gradientUnits="userSpaceOnUse">
<stop stop-color="#4858AE"/>
<stop offset="1" stop-color="#4E60CE"/>
</linearGradient>
<linearGradient id="paint4_linear_5295_6395" x1="545.536" y1="41.9643" x2="522.098" y2="62.0536" gradientUnits="userSpaceOnUse">
<stop stop-color="#4858AE"/>
<stop offset="1" stop-color="#4E60CE"/>
</linearGradient>
<linearGradient id="paint5_linear_5295_6395" x1="545.536" y1="41.9643" x2="522.098" y2="62.0536" gradientUnits="userSpaceOnUse">
<stop stop-color="#4858AE"/>
<stop offset="1" stop-color="#4E60CE"/>
</linearGradient>
<linearGradient id="paint6_linear_5295_6395" x1="528.125" y1="28.125" x2="584.375" y2="28.125" gradientUnits="userSpaceOnUse">
<stop stop-color="#2A3887"/>
<stop offset="1" stop-color="#4C56B9"/>
</linearGradient>
<linearGradient id="paint7_linear_5295_6395" x1="492.928" y1="940.625" x2="519.798" y2="899.503" gradientUnits="userSpaceOnUse">
<stop stop-color="#364088"/>
<stop offset="1" stop-color="#6E7EE1"/>
</linearGradient>
<linearGradient id="paint8_linear_5295_6395" x1="510.637" y1="971.875" x2="510.637" y2="921.875" gradientUnits="userSpaceOnUse">
<stop stop-color="#515FC4"/>
<stop offset="1" stop-color="#7084EA"/>
</linearGradient>
<linearGradient id="paint9_linear_5295_6395" x1="465.625" y1="907.237" x2="483.739" y2="919.983" gradientUnits="userSpaceOnUse">
<stop stop-color="#364088"/>
<stop offset="1" stop-color="#6E7EE1"/>
</linearGradient>
<linearGradient id="paint10_linear_5295_6395" x1="459.821" y1="934.821" x2="475.893" y2="953.571" gradientUnits="userSpaceOnUse">
<stop stop-color="#4858AE"/>
<stop offset="1" stop-color="#4E60CE"/>
</linearGradient>
<linearGradient id="paint11_linear_5295_6395" x1="454.464" y1="958.036" x2="477.902" y2="937.946" gradientUnits="userSpaceOnUse">
<stop stop-color="#4858AE"/>
<stop offset="1" stop-color="#4E60CE"/>
</linearGradient>
<linearGradient id="paint12_linear_5295_6395" x1="454.464" y1="958.036" x2="477.902" y2="937.946" gradientUnits="userSpaceOnUse">
<stop stop-color="#4858AE"/>
<stop offset="1" stop-color="#4E60CE"/>
</linearGradient>
<linearGradient id="paint13_linear_5295_6395" x1="471.875" y1="1028.13" x2="528.125" y2="1028.12" gradientUnits="userSpaceOnUse">
<stop stop-color="#2A3887"/>
<stop offset="1" stop-color="#4C56B9"/>
</linearGradient>
<clipPath id="clip0_5295_6395">
<rect width="100" height="100" fill="white" transform="translate(550) rotate(90)"/>
</clipPath>
<clipPath id="clip1_5295_6395">
<rect width="100" height="100" fill="white" transform="translate(450 1000) rotate(-90)"/>
</clipPath>
</defs>
</svg>
