<svg width="1301" height="1301" viewBox="0 0 1301 1301" fill="none" xmlns="http://www.w3.org/2000/svg">
<circle cx="650.154" cy="650" r="600" fill="white" fill-opacity="0.08"/>
<circle cx="650.154" cy="650" r="599.528" stroke="white" stroke-opacity="0.1" stroke-width="0.943376"/>
<path d="M6.26953 637.477C6.26953 626.553 6.26953 621.091 8.3954 616.919C10.2654 613.249 13.2492 610.265 16.9192 608.395C21.0914 606.27 26.5532 606.27 37.4767 606.27H62.8326C73.7561 606.27 79.2179 606.27 83.3902 608.395C87.0602 610.265 90.044 613.249 91.9139 616.919C94.0398 621.091 94.0398 626.553 94.0398 637.477V662.833C94.0398 673.756 94.0398 679.218 91.9139 683.39C90.044 687.06 87.0602 690.044 83.3902 691.914C79.2179 694.04 73.7561 694.04 62.8326 694.04H37.4767C26.5532 694.04 21.0914 694.04 16.9192 691.914C13.2492 690.044 10.2654 687.06 8.3954 683.39C6.26953 679.218 6.26953 673.756 6.26953 662.833L6.26953 637.477Z" fill="white"/>
<path d="M69.1223 626.716L50.3548 641.362L31.1582 626.716V626.72L31.1814 626.74V647.249L50.1383 662.212L69.1223 647.826V626.716Z" fill="#EA4335"/>
<path d="M74.0507 623.154L69.1221 626.716V647.827L84.6309 635.92V628.747C84.6309 628.747 82.7483 618.502 74.0507 623.154Z" fill="#FBBC05"/>
<path d="M69.1221 647.827V675.208H81.0088C81.0088 675.208 84.3912 674.86 84.6347 671.004V635.92L69.1221 647.827Z" fill="#34A853"/>
<path d="M31.1823 675.231V647.248L31.1582 647.229L31.1823 675.231Z" fill="#C5221F"/>
<path d="M31.1585 626.72L26.2569 623.177C17.5593 618.526 15.6729 628.767 15.6729 628.767V635.94L31.1585 647.229V626.72Z" fill="#C5221F"/>
<path d="M31.1582 626.72V647.229L31.1823 647.248V626.74L31.1582 626.72Z" fill="#C5221F"/>
<path d="M15.6729 635.943L15.6729 671.027C15.9125 674.887 19.2988 675.231 19.2988 675.231H31.1855L31.1585 647.229L15.6729 635.943Z" fill="#4285F4"/>
<path d="M1294.04 662.832C1294.04 673.755 1294.04 679.217 1291.91 683.389C1290.04 687.059 1287.06 690.043 1283.39 691.913C1279.22 694.039 1273.76 694.039 1262.83 694.039L1237.48 694.039C1226.55 694.039 1221.09 694.039 1216.92 691.913C1213.25 690.043 1210.26 687.059 1208.39 683.389C1206.27 679.217 1206.27 673.755 1206.27 662.832L1206.27 637.476C1206.27 626.552 1206.27 621.091 1208.39 616.918C1210.26 613.248 1213.25 610.265 1216.92 608.395C1221.09 606.269 1226.55 606.269 1237.48 606.269L1262.83 606.269C1273.76 606.269 1279.22 606.269 1283.39 608.395C1287.06 610.265 1290.04 613.248 1291.91 616.918C1294.04 621.091 1294.04 626.552 1294.04 637.476L1294.04 662.832Z" fill="white"/>
<path d="M1231.19 673.593L1249.95 658.946L1269.15 673.593L1269.15 673.589L1269.13 673.569L1269.13 653.06L1250.17 638.097L1231.19 652.482L1231.19 673.593Z" fill="#EA4335"/>
<path d="M1226.26 677.155L1231.19 673.592L1231.19 652.482L1215.68 664.389L1215.68 671.562C1215.68 671.562 1217.56 681.806 1226.26 677.155Z" fill="#FBBC05"/>
<path d="M1231.19 652.482L1231.19 625.101L1219.3 625.101C1219.3 625.101 1215.92 625.449 1215.67 629.305L1215.67 664.389L1231.19 652.482Z" fill="#34A853"/>
<path d="M1269.13 625.078L1269.13 653.06L1269.15 653.08L1269.13 625.078Z" fill="#C5221F"/>
<path d="M1269.15 673.588L1274.05 677.131C1282.75 681.782 1284.64 671.542 1284.64 671.542L1284.64 664.369L1269.15 653.079L1269.15 673.588Z" fill="#C5221F"/>
<path d="M1269.15 673.589L1269.15 653.08L1269.13 653.06L1269.13 673.569L1269.15 673.589Z" fill="#C5221F"/>
<path d="M1284.64 664.365L1284.64 629.281C1284.4 625.422 1281.01 625.077 1281.01 625.077L1269.12 625.077L1269.15 653.08L1284.64 664.365Z" fill="#4285F4"/>
<path d="M662.832 6.26953C673.755 6.26953 679.217 6.26953 683.389 8.3954C687.059 10.2654 690.043 13.2492 691.913 16.9192C694.039 21.0914 694.039 26.5532 694.039 37.4767L694.039 62.8326C694.039 73.7561 694.039 79.2179 691.913 83.3902C690.043 87.0602 687.059 90.044 683.389 91.9139C679.217 94.0398 673.755 94.0398 662.832 94.0398L637.476 94.0398C626.552 94.0398 621.091 94.0398 616.918 91.9139C613.248 90.044 610.265 87.0602 608.395 83.3902C606.269 79.2179 606.269 73.7561 606.269 62.8326L606.269 37.4767C606.269 26.5532 606.269 21.0914 608.395 16.9192C610.265 13.2492 613.248 10.2654 616.918 8.39539C621.091 6.26953 626.552 6.26953 637.476 6.26953L662.832 6.26953Z" fill="white"/>
<path d="M673.593 69.1223L658.946 50.3548L673.593 31.1582L673.589 31.1582L673.569 31.1814L653.06 31.1814L638.097 50.1383L652.482 69.1223L673.593 69.1223Z" fill="#EA4335"/>
<path d="M677.155 74.0507L673.592 69.1221L652.482 69.1221L664.389 84.6309L671.562 84.6309C671.562 84.6309 681.806 82.7483 677.155 74.0507Z" fill="#FBBC05"/>
<path d="M652.482 69.1221L625.101 69.1221L625.101 81.0088C625.101 81.0088 625.449 84.3912 629.305 84.6347L664.389 84.6347L652.482 69.1221Z" fill="#34A853"/>
<path d="M625.078 31.1823L653.06 31.1823L653.08 31.1582L625.078 31.1823Z" fill="#C5221F"/>
<path d="M673.588 31.1585L677.131 26.2569C681.782 17.5593 671.542 15.6729 671.542 15.6729L664.369 15.6729L653.079 31.1585L673.588 31.1585Z" fill="#C5221F"/>
<path d="M673.589 31.1582L653.08 31.1582L653.06 31.1823L673.569 31.1823L673.589 31.1582Z" fill="#C5221F"/>
<path d="M664.365 15.6729L629.281 15.6729C625.422 15.9125 625.077 19.2988 625.077 19.2988L625.077 31.1855L653.08 31.1585L664.365 15.6729Z" fill="#4285F4"/>
<path d="M637.477 1294.04C626.553 1294.04 621.091 1294.04 616.919 1291.91C613.249 1290.04 610.265 1287.06 608.395 1283.39C606.27 1279.22 606.27 1273.76 606.27 1262.83L606.27 1237.48C606.27 1226.55 606.27 1221.09 608.395 1216.92C610.265 1213.25 613.249 1210.26 616.919 1208.39C621.091 1206.27 626.553 1206.27 637.477 1206.27L662.833 1206.27C673.756 1206.27 679.218 1206.27 683.39 1208.39C687.06 1210.26 690.044 1213.25 691.914 1216.92C694.04 1221.09 694.04 1226.55 694.04 1237.48L694.04 1262.83C694.04 1273.76 694.04 1279.22 691.914 1283.39C690.044 1287.06 687.06 1290.04 683.39 1291.91C679.218 1294.04 673.756 1294.04 662.833 1294.04L637.477 1294.04Z" fill="white"/>
<path d="M626.716 1231.19L641.362 1249.95L626.716 1269.15L626.72 1269.15L626.74 1269.13L647.249 1269.13L662.212 1250.17L647.826 1231.19L626.716 1231.19Z" fill="#EA4335"/>
<path d="M623.154 1226.26L626.716 1231.19L647.827 1231.19L635.92 1215.68L628.747 1215.68C628.747 1215.68 618.502 1217.56 623.154 1226.26Z" fill="#FBBC05"/>
<path d="M647.827 1231.19L675.208 1231.19L675.208 1219.3C675.208 1219.3 674.86 1215.92 671.004 1215.67L635.92 1215.67L647.827 1231.19Z" fill="#34A853"/>
<path d="M675.231 1269.13L647.248 1269.13L647.229 1269.15L675.231 1269.13Z" fill="#C5221F"/>
<path d="M626.72 1269.15L623.177 1274.05C618.526 1282.75 628.767 1284.64 628.767 1284.64L635.94 1284.64L647.229 1269.15L626.72 1269.15Z" fill="#C5221F"/>
<path d="M626.72 1269.15L647.229 1269.15L647.248 1269.13L626.74 1269.13L626.72 1269.15Z" fill="#C5221F"/>
<path d="M635.943 1284.64L671.027 1284.64C674.887 1284.4 675.231 1281.01 675.231 1281.01L675.231 1269.12L647.229 1269.15L635.943 1284.64Z" fill="#4285F4"/>
<path d="M204.612 184.953C212.06 177.504 215.784 173.78 220.079 172.385C223.856 171.157 227.925 171.157 231.703 172.385C235.997 173.78 239.721 177.504 247.169 184.953L266.675 204.458C274.123 211.906 277.847 215.63 279.243 219.925C280.47 223.702 280.47 227.771 279.243 231.549C277.847 235.843 274.123 239.567 266.675 247.016L247.169 266.521C239.721 273.969 235.997 277.693 231.703 279.089C227.925 280.316 223.856 280.316 220.079 279.089C215.784 277.693 212.06 273.969 204.612 266.521L185.106 247.016C177.658 239.567 173.934 235.843 172.539 231.549C171.311 227.771 171.311 223.702 172.539 219.925C173.934 215.63 177.658 211.906 185.106 204.458L204.612 184.953Z" fill="white"/>
<path d="M257.579 227.901C255.81 223.357 253.443 218.973 250.488 214.87C249.319 215.173 247.823 215.657 246.686 216.095C243.465 211.814 239.748 208.098 235.536 204.946C235.975 203.809 236.447 202.301 236.746 201.128C232.64 198.17 228.248 195.803 223.701 194.037C208.295 196.71 197.754 203.798 189.928 213.351C191.188 220.536 193.48 226.428 196.326 231.63C198.604 231.339 200.855 230.859 203.058 230.183C202.123 228.211 201.371 226.178 200.799 224.119C201.391 224.225 201.986 224.313 202.577 224.381C207.075 235.931 215.793 244.649 227.247 249.051C227.319 249.646 227.406 250.241 227.509 250.829C225.442 250.257 223.406 249.501 221.433 248.566C220.761 250.765 220.274 253.016 219.987 255.298C225.192 258.147 231.088 260.444 238.277 261.7C249.363 252.64 255.354 241.163 257.579 227.901ZM211.346 224.081C208.937 221.673 209.075 217.585 211.647 215.012C214.22 212.439 218.269 212.256 220.72 214.707C223.171 217.158 223.033 221.246 220.415 223.78C217.846 226.356 213.797 226.532 211.346 224.081ZM227.547 240.282C225.138 237.873 225.275 233.785 227.848 231.213C230.421 228.64 234.47 228.457 236.921 230.908C239.371 233.359 239.234 237.447 236.616 239.981C234.043 242.553 229.997 242.733 227.547 240.282Z" fill="#5865F2"/>
<path d="M1095.7 1115.05C1088.25 1122.5 1084.52 1126.22 1080.23 1127.62C1076.45 1128.84 1072.38 1128.84 1068.61 1127.62C1064.31 1126.22 1060.59 1122.5 1053.14 1115.05L1033.63 1095.54C1026.19 1088.09 1022.46 1084.37 1021.07 1080.08C1019.84 1076.3 1019.84 1072.23 1021.07 1068.45C1022.46 1064.16 1026.19 1060.43 1033.63 1052.99L1053.14 1033.48C1060.59 1026.03 1064.31 1022.31 1068.61 1020.91C1072.38 1019.68 1076.45 1019.68 1080.23 1020.91C1084.52 1022.31 1088.25 1026.03 1095.7 1033.48L1115.2 1052.99C1122.65 1060.43 1126.37 1064.16 1127.77 1068.45C1129 1072.23 1129 1076.3 1127.77 1080.08C1126.37 1084.37 1122.65 1088.09 1115.2 1095.54L1095.7 1115.05Z" fill="white"/>
<path d="M1042.73 1072.1C1044.5 1076.64 1046.87 1081.03 1049.82 1085.13C1050.99 1084.83 1052.49 1084.34 1053.62 1083.91C1056.84 1088.19 1060.56 1091.9 1064.77 1095.06C1064.33 1096.19 1063.86 1097.7 1063.56 1098.87C1067.67 1101.83 1072.06 1104.2 1076.61 1105.96C1092.01 1103.29 1102.55 1096.2 1110.38 1086.65C1109.12 1079.46 1106.83 1073.57 1103.98 1068.37C1101.7 1068.66 1099.45 1069.14 1097.25 1069.82C1098.19 1071.79 1098.94 1073.82 1099.51 1075.88C1098.92 1075.78 1098.32 1075.69 1097.73 1075.62C1093.23 1064.07 1084.52 1055.35 1073.06 1050.95C1072.99 1050.36 1072.9 1049.76 1072.8 1049.17C1074.87 1049.74 1076.9 1050.5 1078.88 1051.43C1079.55 1049.24 1080.03 1046.98 1080.32 1044.7C1075.12 1041.85 1069.22 1039.56 1062.03 1038.3C1050.95 1047.36 1044.95 1058.84 1042.73 1072.1ZM1088.96 1075.92C1091.37 1078.33 1091.23 1082.42 1088.66 1084.99C1086.09 1087.56 1082.04 1087.74 1079.59 1085.29C1077.14 1082.84 1077.28 1078.76 1079.89 1076.22C1082.46 1073.64 1086.51 1073.47 1088.96 1075.92ZM1072.76 1059.72C1075.17 1062.13 1075.03 1066.22 1072.46 1068.79C1069.89 1071.36 1065.84 1071.54 1063.39 1069.09C1060.94 1066.64 1061.07 1062.55 1063.69 1060.02C1066.27 1057.45 1070.31 1057.27 1072.76 1059.72Z" fill="#5865F2"/>
<path d="M1115.2 204.457C1122.65 211.905 1126.38 215.629 1127.77 219.923C1129 223.701 1129 227.77 1127.77 231.547C1126.38 235.842 1122.65 239.566 1115.2 247.014L1095.7 266.52C1088.25 273.968 1084.52 277.692 1080.23 279.087C1076.45 280.315 1072.38 280.315 1068.61 279.087C1064.31 277.692 1060.59 273.968 1053.14 266.52L1033.63 247.014C1026.19 239.566 1022.46 235.842 1021.07 231.547C1019.84 227.77 1019.84 223.701 1021.07 219.923C1022.46 215.629 1026.19 211.905 1033.63 204.457L1053.14 184.951C1060.59 177.503 1064.31 173.779 1068.61 172.383C1072.38 171.156 1076.45 171.156 1080.23 172.383C1084.52 173.779 1088.25 177.503 1095.7 184.951L1115.2 204.457Z" fill="white"/>
<path d="M1072.25 257.423C1076.8 255.654 1081.18 253.288 1085.28 250.333C1084.98 249.164 1084.5 247.667 1084.06 246.531C1088.34 243.31 1092.06 239.593 1095.21 235.381C1096.35 235.82 1097.85 236.292 1099.03 236.591C1101.99 232.484 1104.35 228.093 1106.12 223.545C1103.45 208.139 1096.36 197.599 1086.8 189.772C1079.62 191.032 1073.73 193.325 1068.53 196.171C1068.82 198.449 1069.3 200.7 1069.97 202.902C1071.94 201.968 1073.98 201.216 1076.04 200.644C1075.93 201.235 1075.84 201.831 1075.77 202.422C1064.22 206.92 1055.51 215.638 1051.1 227.091C1050.51 227.164 1049.91 227.251 1049.33 227.354C1049.9 225.287 1050.65 223.251 1051.59 221.278C1049.39 220.606 1047.14 220.119 1044.86 219.832C1042.01 225.036 1039.71 230.932 1038.46 238.122C1047.52 249.208 1058.99 255.199 1072.25 257.423ZM1076.07 211.191C1078.48 208.782 1082.57 208.919 1085.14 211.492C1087.72 214.064 1087.9 218.114 1085.45 220.565C1083 223.015 1078.91 222.878 1076.38 220.26C1073.8 217.691 1073.62 213.641 1076.07 211.191ZM1059.87 227.391C1062.28 224.983 1066.37 225.12 1068.94 227.693C1071.52 230.265 1071.7 234.315 1069.25 236.765C1066.8 239.216 1062.71 239.079 1060.17 236.46C1057.6 233.888 1057.42 229.842 1059.87 227.391Z" fill="#5865F2"/>
<path d="M185.107 1095.54C177.659 1088.09 173.934 1084.37 172.539 1080.08C171.312 1076.3 171.312 1072.23 172.539 1068.45C173.934 1064.16 177.659 1060.43 185.107 1052.98L204.612 1033.48C212.061 1026.03 215.785 1022.31 220.079 1020.91C223.857 1019.68 227.926 1019.68 231.703 1020.91C235.997 1022.31 239.722 1026.03 247.17 1033.48L266.675 1052.98C274.124 1060.43 277.848 1064.16 279.243 1068.45C280.47 1072.23 280.47 1076.3 279.243 1080.08C277.848 1084.37 274.124 1088.09 266.675 1095.54L247.17 1115.05C239.722 1122.5 235.997 1126.22 231.703 1127.62C227.926 1128.84 223.857 1128.84 220.079 1127.62C215.785 1126.22 212.061 1122.5 204.612 1115.05L185.107 1095.54Z" fill="white"/>
<path d="M228.055 1042.58C223.511 1044.34 219.127 1046.71 215.025 1049.67C215.327 1050.84 215.811 1052.33 216.25 1053.47C211.969 1056.69 208.252 1060.41 205.1 1064.62C203.963 1064.18 202.455 1063.71 201.282 1063.41C198.324 1067.51 195.957 1071.91 194.192 1076.45C196.864 1091.86 203.953 1102.4 213.505 1110.23C220.691 1108.97 226.583 1106.67 231.784 1103.83C231.493 1101.55 231.013 1099.3 230.338 1097.1C228.365 1098.03 226.332 1098.78 224.273 1099.36C224.38 1098.76 224.467 1098.17 224.535 1097.58C236.085 1093.08 244.803 1084.36 249.205 1072.91C249.8 1072.84 250.395 1072.75 250.983 1072.65C250.411 1074.71 249.655 1076.75 248.721 1078.72C250.919 1079.39 253.171 1079.88 255.452 1080.17C258.302 1074.96 260.598 1069.07 261.855 1061.88C252.794 1050.79 241.318 1044.8 228.055 1042.58ZM224.235 1088.81C221.827 1091.22 217.739 1091.08 215.166 1088.51C212.594 1085.93 212.411 1081.89 214.861 1079.43C217.312 1076.98 221.4 1077.12 223.934 1079.74C226.511 1082.31 226.686 1086.36 224.235 1088.81ZM240.436 1072.61C238.028 1075.02 233.94 1074.88 231.367 1072.31C228.795 1069.73 228.611 1065.68 231.062 1063.23C233.513 1060.78 237.601 1060.92 240.135 1063.54C242.708 1066.11 242.887 1070.16 240.436 1072.61Z" fill="#5865F2"/>
</svg>
