<svg width="445" height="445" viewBox="0 0 445 445" fill="none" xmlns="http://www.w3.org/2000/svg" xmlns:xlink="http://www.w3.org/1999/xlink">
<rect opacity="0.07" x="445.173" y="445" width="445" height="445" transform="rotate(180 445.173 445)" fill="url(#pattern0_5294_4578)"/>
<g filter="url(#filter0_f_5294_4578)" style="mix-blend-mode:plus-lighter">
<path d="M577.557 482.056C564.153 542.395 279.91 692.64 88.7226 650.448C-102.465 608.255 -118.277 267.13 -104.873 206.791C-91.469 146.452 27.6638 295.556 218.851 337.748C410.038 379.941 590.961 421.718 577.557 482.056Z" fill="#FD0000"/>
</g>
<g filter="url(#filter1_f_5294_4578)" style="mix-blend-mode:plus-lighter">
<ellipse cx="283.057" cy="489.027" rx="353.395" ry="111.899" transform="rotate(-13.692 283.057 489.027)" fill="#4B37FF"/>
</g>
<g filter="url(#filter2_f_5294_4578)" style="mix-blend-mode:plus-lighter">
<path d="M706.646 689.592C681.205 766.971 419.349 937.987 174.976 857.64C-69.397 777.293 -222.983 568.048 -197.541 490.669C-172.1 413.291 118.359 538.186 299.613 597.78C480.866 657.375 732.087 612.214 706.646 689.592Z" fill="white"/>
</g>
<defs>
<pattern id="pattern0_5294_4578" patternContentUnits="objectBoundingBox" width="0.41987" height="0.41987">
<use xlink:href="#image0_5294_4578" transform="scale(0.000123021)"/>
</pattern>
<filter id="filter0_f_5294_4578" x="-272.466" y="28.6084" width="1014.72" height="793.203" filterUnits="userSpaceOnUse" color-interpolation-filters="sRGB">
<feFlood flood-opacity="0" result="BackgroundImageFix"/>
<feBlend mode="normal" in="SourceGraphic" in2="BackgroundImageFix" result="shape"/>
<feGaussianBlur stdDeviation="82" result="effect1_foregroundBlur_5294_4578"/>
</filter>
<filter id="filter1_f_5294_4578" x="-225.331" y="187.846" width="1016.78" height="602.364" filterUnits="userSpaceOnUse" color-interpolation-filters="sRGB">
<feFlood flood-opacity="0" result="BackgroundImageFix"/>
<feBlend mode="normal" in="SourceGraphic" in2="BackgroundImageFix" result="shape"/>
<feGaussianBlur stdDeviation="82" result="effect1_foregroundBlur_5294_4578"/>
</filter>
<filter id="filter2_f_5294_4578" x="-364.285" y="302.111" width="1236.72" height="740.5" filterUnits="userSpaceOnUse" color-interpolation-filters="sRGB">
<feFlood flood-opacity="0" result="BackgroundImageFix"/>
<feBlend mode="normal" in="SourceGraphic" in2="BackgroundImageFix" result="shape"/>
<feGaussianBlur stdDeviation="82" result="effect1_foregroundBlur_5294_4578"/>
</filter>
</defs>
</svg>
